<?xml version="1.0" encoding="UTF-8" standalone="no"?>
<svg
   xmlns:dc="http://purl.org/dc/elements/1.1/"
   xmlns:cc="http://creativecommons.org/ns#"
   xmlns:rdf="http://www.w3.org/1999/02/22-rdf-syntax-ns#"
   xmlns:svg="http://www.w3.org/2000/svg"
   xmlns="http://www.w3.org/2000/svg"
   version="1.1"
   id="svg1470"
   width="212.8"
   height="124.8"
   viewBox="0 0 212.8 124.8">
  <metadata
     id="metadata1476">
    <rdf:RDF>
      <cc:Work
         rdf:about="">
        <dc:format>image/svg+xml</dc:format>
        <dc:type
           rdf:resource="http://purl.org/dc/dcmitype/StillImage" />
        <dc:title></dc:title>
      </cc:Work>
    </rdf:RDF>
  </metadata>
  <defs
     id="defs1474" />
  <g
     id="g1478">
    <g
       style="stroke-width:0.99979609;stroke-miterlimit:4;stroke-dasharray:none;fill:#ee4540;fill-opacity:1"
       transform="matrix(1.0372115,0,0,1.0372115,-18.935166,12.6992)"
       id="g3170">
      <path
         id="path1556"
         d="m 86.399376,44.656876 c 0,0 -10.048551,-13.639811 4.387262,-25.122256 0,0 -10.157666,2.413455 -9.915583,13.113189 0,0 -0.48586,6.639659 5.528321,12.009067 z"
         style="fill:#ee4540;fill-opacity:1;stroke:none;stroke-width:0.99979609;stroke-linecap:butt;stroke-linejoin:miter;stroke-miterlimit:4;stroke-dasharray:none;stroke-opacity:1" />
      <path
         id="path1558"
         d="m 79.456325,27.81385 c 0,0 -10.323814,9.799549 1.238721,24.631022 0,0 -4.464316,-1.140267 -7.916616,-10.047684 0,0 -1.981606,17.105771 18.700898,24.065821 0,0 -2.368203,-9.699333 1.716041,-14.140535 0,0 -18.465634,-4.554394 -13.739044,-24.508624 z"
         style="fill:#ee4540;fill-opacity:1;stroke:none;stroke-width:0.99979609;stroke-linecap:butt;stroke-linejoin:miter;stroke-miterlimit:4;stroke-dasharray:none;stroke-opacity:1" />
      <path
         id="path1564"
         d="m 92.814169,69.886645 c 0,0 1.151524,3.608255 3.558027,5.986713 0,0 -17.780128,-6.358568 -22.357847,-20.156484 0,0 6.957619,10.657705 18.79982,14.169771 z"
         style="fill:#ee4540;fill-opacity:1;stroke:none;stroke-width:0.99979609;stroke-linecap:butt;stroke-linejoin:miter;stroke-miterlimit:4;stroke-dasharray:none;stroke-opacity:1" />
      <path
         id="path1568"
         d="m 114.77014,55.480371 c 0,0 16.12532,-8.751844 14.06236,-21.730298 0,0 6.26898,11.456189 -6.43987,23.690306 0,0 10.72299,-3.882121 13.44308,-15.830723 0,0 5.22469,11.30023 -11.62871,21.455664 0,0 -18.61762,6.072568 -16.21647,15.345512 0,0 -3.26821,-7.354349 -0.82979,-13.217464 0.39736,-0.955448 -4.60195,5.674368 -1.63741,14.512048 0,0 -11.700867,-5.823328 -11.478972,-17.459597 0.221895,-11.636269 9.204812,-15.119575 8.740012,-17.408146 -0.4648,-2.288571 -4.20122,-3.028139 -5.414972,-1.542093 0,0 0.07235,-5.216633 6.197912,-4.48766 6.01193,0.715453 5.43098,6.910426 5.43098,6.910426 0,0 -0.20472,2.394291 -2.60179,5.180651 -2.32162,2.698658 -8.261396,11.51258 -5.74377,15.46946 0,0 -1.058296,-6.394438 9.37568,-13.028689 10.43398,-6.634251 14.23998,-17.785536 12.71432,-22.522418 0,0 6.69704,12.635844 -7.97259,24.663021"
         style="fill:#ee4540;fill-opacity:1;stroke:none;stroke-width:0.99979609;stroke-linecap:butt;stroke-linejoin:miter;stroke-miterlimit:4;stroke-dasharray:none;stroke-opacity:1" />
      <path
         id="path1572"
         d="m 125.8121,40.167153 c 0,0 2.45713,-13.851128 -9.70506,-20.908876 0,0 15.79926,5.411943 9.70506,20.908876 z"
         style="fill:#ee4540;fill-opacity:1;stroke:none;stroke-width:0.99979609;stroke-linecap:butt;stroke-linejoin:miter;stroke-miterlimit:4;stroke-dasharray:none;stroke-opacity:1" />
      <path
         id="path1576"
         d="m 131.91468,45.772595 c 0,0 2.19738,-11.06388 -3.57116,-18.871886 0,0 10.25537,8.98466 3.57116,18.871886 z"
         style="fill:#ee4540;fill-opacity:1;stroke:none;stroke-width:0.99979609;stroke-linecap:butt;stroke-linejoin:miter;stroke-miterlimit:4;stroke-dasharray:none;stroke-opacity:1" />
      <path
         id="path1582"
         d="m 111.14494,75.403603 c 0,0 0.39612,-4.406011 10.44087,-7.900991 10.04474,-3.49498 12.27533,-8.487099 12.27533,-8.487099 0,0 1.09548,5.786701 -7.64158,9.816346 -3.76548,1.736688 -10.58672,1.933085 -15.07462,6.571744 z"
         style="fill:#ee4540;fill-opacity:1;stroke:none;stroke-width:0.99979609;stroke-linecap:butt;stroke-linejoin:miter;stroke-miterlimit:4;stroke-dasharray:none;stroke-opacity:1" />
    </g>
    <text
       id="text3174"
       y="60.270668"
       x="27.20822"
       style="font-style:normal;font-weight:normal;font-size:40px;line-height:1.25;font-family:sans-serif;fill:#000000;fill-opacity:1;stroke:none"
       xml:space="preserve"><tspan
         y="60.270668"
         x="27.20822"
         id="tspan3172" /></text>
    <g
       style="font-style:normal;font-variant:normal;font-weight:normal;font-stretch:normal;font-size:34.2154px;line-height:1.25;font-family:sans-serif;-inkscape-font-specification:sans-serif;letter-spacing:0.0855385px;fill:#ee4540;fill-opacity:1;stroke-width:0.855385"
       id="text3178"
       aria-label="PH      ENIX ">
      <path
         id="path3220"
         style="font-style:normal;font-variant:normal;font-weight:normal;font-stretch:normal;font-family:sans-serif;-inkscape-font-specification:sans-serif"
         d="m 16.624266,53.816013 v 9.37248 h 4.243511 q 2.35565,0 3.642069,-1.219592 1.286419,-1.219592 1.286419,-3.475001 0,-2.238703 -1.286419,-3.458295 -1.286419,-1.219592 -3.642069,-1.219592 z m -3.374762,-2.773319 h 7.618273 q 4.193392,0 6.331854,1.904569 2.155169,1.887861 2.155169,5.546637 0,3.692189 -2.155169,5.58005 -2.138462,1.887862 -6.331854,1.887862 h -4.243511 v 10.024043 h -3.374762 z" />
      <path
         id="path3222"
         style="font-style:normal;font-variant:normal;font-weight:normal;font-stretch:normal;font-family:sans-serif;-inkscape-font-specification:sans-serif"
         d="m 33.967865,51.042694 h 3.374761 V 61.267218 H 49.605373 V 51.042694 h 3.374761 V 75.985855 H 49.605373 V 64.107364 H 37.342626 v 11.878491 h -3.374761 z" />
      <path
         id="path3224"
         style="font-style:normal;font-variant:normal;font-weight:normal;font-stretch:normal;font-family:sans-serif;-inkscape-font-specification:sans-serif"
         d="m 125.55154,51.042694 h 15.77116 v 2.840146 h -12.3964 v 7.384378 h 11.87849 v 2.840146 H 128.9263 v 9.038346 h 12.69712 v 2.840145 h -16.07188 z" />
      <path
         id="path3226"
         style="font-style:normal;font-variant:normal;font-weight:normal;font-stretch:normal;font-family:sans-serif;-inkscape-font-specification:sans-serif"
         d="m 147.25559,51.042694 h 4.54424 l 11.05986,20.866717 V 51.042694 h 3.27452 v 24.943161 h -4.54424 L 150.53011,55.119139 v 20.866716 h -3.27452 z" />
      <path
         id="path3228"
         style="font-style:normal;font-variant:normal;font-weight:normal;font-stretch:normal;font-family:sans-serif;-inkscape-font-specification:sans-serif"
         d="m 172.93586,51.042694 h 3.37476 v 24.943161 h -3.37476 z" />
      <path
         id="path3230"
         style="font-style:normal;font-variant:normal;font-weight:normal;font-stretch:normal;font-family:sans-serif;-inkscape-font-specification:sans-serif"
         d="m 181.90938,51.042694 h 3.62536 l 6.1982,9.27224 6.23162,-9.27224 h 3.62536 l -8.01923,11.978732 8.55385,12.964429 h -3.62537 l -7.01683,-10.608779 -7.06695,10.608779 h -3.64207 l 8.9047,-13.315271 z" />
    </g>
    <text
       id="text3184"
       y="88.778763"
       x="124.5449"
       style="font-size:14.6667px;line-height:1.25;font-family:sans-serif;letter-spacing:0.28px;fill:#ee4540;fill-opacity:1"
       xml:space="preserve"><tspan
         style="fill:#ee4540;fill-opacity:1;"
         y="88.778763"
         x="124.5449"
         id="tspan3182">SEARCH</tspan></text>
  </g>
</svg>
