<?xml version="1.0" encoding="UTF-8" standalone="no"?>
<svg
   xmlns:dc="http://purl.org/dc/elements/1.1/"
   xmlns:cc="http://creativecommons.org/ns#"
   xmlns:rdf="http://www.w3.org/1999/02/22-rdf-syntax-ns#"
   xmlns:svg="http://www.w3.org/2000/svg"
   xmlns="http://www.w3.org/2000/svg"
   xmlns:sodipodi="http://sodipodi.sourceforge.net/DTD/sodipodi-0.dtd"
   xmlns:inkscape="http://www.inkscape.org/namespaces/inkscape"
   version="1.1"
   id="svg1470"
   width="66.250656"
   height="62.696468"
   viewBox="0 0 66.250655 62.696467"
   sodipodi:docname="PhoenixFavi.svg"
   inkscape:version="1.0 (4035a4fb49, 2020-05-01)">
  <metadata
     id="metadata1476">
    <rdf:RDF>
      <cc:Work
         rdf:about="">
        <dc:format>image/svg+xml</dc:format>
        <dc:type
           rdf:resource="http://purl.org/dc/dcmitype/StillImage" />
        <dc:title></dc:title>
      </cc:Work>
    </rdf:RDF>
  </metadata>
  <defs
     id="defs1474" />
  <sodipodi:namedview
     fit-margin-bottom="0"
     fit-margin-right="0"
     fit-margin-left="0"
     fit-margin-top="0"
     inkscape:document-rotation="0"
     pagecolor="#ffffff"
     bordercolor="#666666"
     borderopacity="1"
     objecttolerance="10"
     gridtolerance="10"
     guidetolerance="10"
     inkscape:pageopacity="0"
     inkscape:pageshadow="2"
     inkscape:window-width="1920"
     inkscape:window-height="1016"
     id="namedview1472"
     showgrid="false"
     inkscape:snap-bbox="false"
     inkscape:zoom="5.6568543"
     inkscape:cx="59.21061"
     inkscape:cy="35.980091"
     inkscape:window-x="0"
     inkscape:window-y="0"
     inkscape:window-maximized="1"
     inkscape:current-layer="g1478" />
  <g
     transform="translate(-56.498309,-32.674106)"
     inkscape:groupmode="layer"
     inkscape:label="Image"
     id="g1478">
    <g
       style="stroke-width:0.999796;stroke-miterlimit:4;stroke-dasharray:none"
       transform="matrix(1.0372115,0,0,1.0372115,-18.935166,12.6992)"
       id="g3170">
      <path
         id="path1556"
         d="m 86.399376,44.656876 c 0,0 -10.048551,-13.639811 4.387262,-25.122256 0,0 -10.157666,2.413455 -9.915583,13.113189 0,0 -0.48586,6.639659 5.528321,12.009067 z"
         style="fill:#ee4540;fill-opacity:1;stroke:none;stroke-width:0.999796;stroke-linecap:butt;stroke-linejoin:miter;stroke-miterlimit:4;stroke-dasharray:none;stroke-opacity:1"
         sodipodi:nodetypes="cccc" />
      <path
         id="path1558"
         d="m 79.456325,27.81385 c 0,0 -10.323814,9.799549 1.238721,24.631022 0,0 -4.464316,-1.140267 -7.916616,-10.047684 0,0 -1.981606,17.105771 18.700898,24.065821 0,0 -2.368203,-9.699333 1.716041,-14.140535 0,0 -18.465634,-4.554394 -13.739044,-24.508624 z"
         style="fill:#ee4540;fill-opacity:1;stroke:none;stroke-width:0.999796;stroke-linecap:butt;stroke-linejoin:miter;stroke-miterlimit:4;stroke-dasharray:none;stroke-opacity:1" />
      <path
         id="path1564"
         d="m 92.814169,69.886645 c 0,0 1.151524,3.608255 3.558027,5.986713 0,0 -17.780128,-6.358568 -22.357847,-20.156484 0,0 6.957619,10.657705 18.79982,14.169771 z"
         style="fill:#ee4540;fill-opacity:1;stroke:none;stroke-width:0.999796;stroke-linecap:butt;stroke-linejoin:miter;stroke-miterlimit:4;stroke-dasharray:none;stroke-opacity:1" />
      <path
         sodipodi:nodetypes="ccccccscsscscscscc"
         id="path1568"
         d="m 114.77014,55.480371 c 0,0 16.12532,-8.751844 14.06236,-21.730298 0,0 6.26898,11.456189 -6.43987,23.690306 0,0 10.72299,-3.882121 13.44308,-15.830723 0,0 5.22469,11.30023 -11.62871,21.455664 0,0 -18.61762,6.072568 -16.21647,15.345512 0,0 -3.26821,-7.354349 -0.82979,-13.217464 0.39736,-0.955448 -4.60195,5.674368 -1.63741,14.512048 0,0 -11.700867,-5.823328 -11.478972,-17.459597 0.221895,-11.636269 9.204812,-15.119575 8.740012,-17.408146 -0.4648,-2.288571 -4.20122,-3.028139 -5.414972,-1.542093 0,0 0.07235,-5.216633 6.197912,-4.48766 6.01193,0.715453 5.43098,6.910426 5.43098,6.910426 0,0 -0.20472,2.394291 -2.60179,5.180651 -2.32162,2.698658 -8.261396,11.51258 -5.74377,15.46946 0,0 -1.058296,-6.394438 9.37568,-13.028689 10.43398,-6.634251 14.23998,-17.785536 12.71432,-22.522418 0,0 6.69704,12.635844 -7.97259,24.663021"
         style="fill:#ee4540;fill-opacity:1;stroke:none;stroke-width:0.999796;stroke-linecap:butt;stroke-linejoin:miter;stroke-miterlimit:4;stroke-dasharray:none;stroke-opacity:1" />
      <path
         id="path1572"
         d="m 125.8121,40.167153 c 0,0 2.45713,-13.851128 -9.70506,-20.908876 0,0 15.79926,5.411943 9.70506,20.908876 z"
         style="fill:#ee4540;fill-opacity:1;stroke:none;stroke-width:0.999796;stroke-linecap:butt;stroke-linejoin:miter;stroke-miterlimit:4;stroke-dasharray:none;stroke-opacity:1" />
      <path
         id="path1576"
         d="m 131.91468,45.772595 c 0,0 2.19738,-11.06388 -3.57116,-18.871886 0,0 10.25537,8.98466 3.57116,18.871886 z"
         style="fill:#ee4540;fill-opacity:1;stroke:none;stroke-width:0.999796;stroke-linecap:butt;stroke-linejoin:miter;stroke-miterlimit:4;stroke-dasharray:none;stroke-opacity:1" />
      <path
         id="path1582"
         d="m 111.14494,75.403603 c 0,0 0.39612,-4.406011 10.44087,-7.900991 10.04474,-3.49498 12.27533,-8.487099 12.27533,-8.487099 0,0 1.09548,5.786701 -7.64158,9.816346 -3.76548,1.736688 -10.58672,1.933085 -15.07462,6.571744 z"
         style="fill:#ee4540;fill-opacity:1;stroke:none;stroke-width:0.999796;stroke-linecap:butt;stroke-linejoin:miter;stroke-miterlimit:4;stroke-dasharray:none;stroke-opacity:1"
         sodipodi:nodetypes="cscsc" />
    </g>
    <text
       id="text3174"
       y="60.270668"
       x="27.20822"
       style="font-style:normal;font-weight:normal;font-size:40px;line-height:1.25;font-family:sans-serif;fill:#000000;fill-opacity:1;stroke:none"
       xml:space="preserve"><tspan
         y="60.270668"
         x="27.20822"
         id="tspan3172"
         sodipodi:role="line" /></text>
  </g>
</svg>
